<svg version="1.0" xmlns="http://www.w3.org/2000/svg"
 width="200" height="50" viewBox="0 0 431.000000 117.000000"
 preserveAspectRatio="xMidYMid meet">

<g transform="translate(0.000000,117.000000) scale(0.100000,-0.100000)"
fill="#000000" stroke="none">
<path d="M3616 1013 c31 -65 58 -124 61 -130 4 -10 72 -13 292 -13 171 0 280
4 271 9 -26 16 -651 251 -666 251 -9 0 5 -39 42 -117z"/>
<path d="M3037 863 c-4 -3 -7 -142 -7 -309 0 -250 2 -303 14 -307 8 -3 17 -3
20 0 3 4 6 145 6 315 0 250 -3 308 -13 308 -8 0 -17 -3 -20 -7z"/>
<path d="M1576 823 c-3 -21 -6 -50 -6 -65 0 -24 -4 -27 -37 -30 -52 -4 -56
-28 -4 -28 l41 0 0 -177 c0 -196 7 -226 63 -267 43 -32 197 -26 197 8 0 10
-18 12 -80 8 -138 -8 -150 14 -150 265 l0 162 108 3 c139 4 141 21 2 28 l-105
5 -3 63 c-3 69 -16 82 -26 25z"/>
<path d="M180 740 c-60 -13 -87 -28 -114 -62 -40 -53 -47 -111 -44 -382 3
-224 5 -250 21 -260 12 -8 22 -8 35 0 14 9 17 30 20 133 l3 122 30 -25 c36
-31 82 -40 160 -33 118 10 165 70 176 220 12 172 -30 256 -142 283 -65 15 -91
16 -145 4z m150 -78 c53 -26 61 -51 58 -180 -3 -113 -3 -114 -34 -142 -63 -56
-196 -49 -235 13 -17 28 -19 46 -17 148 3 124 12 149 63 170 36 14 128 10 165
-9z"/>
<path d="M612 739 c-28 -8 -33 -14 -30 -37 l3 -27 106 3 c100 4 107 2 134 -20
21 -19 29 -35 32 -75 l5 -50 -114 -5 c-90 -3 -122 -8 -149 -24 -48 -28 -71
-77 -65 -136 6 -59 20 -81 70 -110 56 -32 191 -33 251 -2 68 35 76 64 73 246
-3 151 -4 157 -28 183 -14 15 -38 34 -55 42 -36 19 -186 27 -233 12z m246
-329 c-6 -86 -26 -103 -121 -108 -67 -4 -76 -2 -102 21 -23 19 -29 32 -28 61
2 69 31 84 162 85 l93 1 -4 -60z"/>
<path d="M990 724 c0 -22 108 -411 120 -435 18 -33 57 -51 100 -47 22 2 40 2
40 0 0 -1 -7 -19 -16 -40 -22 -55 -62 -91 -106 -98 -31 -5 -38 -11 -38 -29 0
-36 22 -47 71 -36 107 24 133 73 214 392 73 286 76 309 43 309 -13 0 -28 -4
-35 -8 -7 -4 -33 -93 -58 -197 -25 -104 -52 -200 -60 -212 -17 -25 -52 -30
-78 -10 -12 8 -37 83 -73 211 -30 109 -57 202 -60 207 -3 5 -18 9 -35 9 -20 0
-29 -5 -29 -16z"/>
<path d="M1983 726 c-63 -28 -68 -47 -71 -278 -3 -184 -2 -208 12 -208 14 0
16 22 16 173 1 258 13 289 117 292 42 2 58 6 58 16 0 20 -91 23 -132 5z"/>
<path d="M2225 731 c-17 -3 -30 -13 -30 -21 0 -8 7 -13 15 -11 8 2 53 6 100 8
134 7 180 -27 180 -133 l0 -52 -117 -4 c-163 -6 -212 -34 -220 -125 -9 -101
55 -156 181 -157 81 0 137 21 170 67 19 26 21 42 21 180 -1 178 -10 207 -78
238 -43 19 -156 24 -222 10z m265 -317 c0 -41 -5 -84 -11 -96 -16 -30 -70 -48
-144 -48 -105 0 -145 30 -145 109 0 49 30 86 80 100 19 5 77 10 128 10 l92 1
0 -76z"/>
<path d="M2727 725 c-88 -31 -111 -81 -111 -241 0 -97 3 -116 25 -159 34 -69
77 -89 189 -89 87 -1 130 12 130 39 0 12 -5 12 -27 4 -47 -19 -164 -15 -209 7
-63 31 -75 66 -72 211 3 134 14 163 74 192 33 17 130 20 187 7 49 -11 51 9 2
30 -43 18 -138 18 -188 -1z"/>
<path d="M3217 643 c-114 -107 -126 -127 -102 -176 19 -41 217 -227 241 -227
23 0 11 15 -108 129 -83 79 -108 109 -108 130 -1 20 22 48 107 128 87 83 104
103 85 103 -15 0 -54 -29 -115 -87z"/>
</g>
</svg>
